<?xml version="1.0" encoding="UTF-8"?>
<svg width="161px" height="20px" viewBox="0 0 161 20" version="1.1" xmlns="http://www.w3.org/2000/svg" xmlns:xlink="http://www.w3.org/1999/xlink">
    <!-- Generator: Sketch 53.2 (72643) - https://sketchapp.com -->
    <title>Untitled</title>
    <desc>Created with Sketch.</desc>
    <g id="Page-1" stroke="none" stroke-width="1" fill="none" fill-rule="evenodd">
        <g id="logo_c-01" fill="#FFFFFF" fill-rule="nonzero">
            <polygon id="Path" points="151.36 19.29 157.91 12.73 161 9.64 157.91 6.55 151.36 0 149.13 2.23 156.54 9.64 149.13 17.06"></polygon>
            <polygon id="Path" points="147.72 15.65 150.64 12.73 153.73 9.64 150.64 6.55 147.72 3.63 145.49 5.86 149.27 9.64 145.5 13.43"></polygon>
            <path d="M10.47,5.09 C11.4618417,5.90045567 12.1146223,7.05263132 12.3,8.32 L9.76,8.32 C9.65488849,7.64129003 9.29782132,7.0271345 8.76,6.6 C8.1799872,6.1783532 7.47680922,5.96036803 6.76,5.98 C5.85827004,5.95403436 4.99102872,6.32727746 4.39,7 C3.71728054,7.79860906 3.3835148,8.82861731 3.46,9.87 C3.3882808,10.9138535 3.72132968,11.9452306 4.39,12.75 C4.9784399,13.4085745 5.82717149,13.7744071 6.71,13.75 C7.42839356,13.7698045 8.13265314,13.5479628 8.71,13.12 C9.24696604,12.687836 9.603519,12.0709993 9.71,11.39 L12.26,11.39 C12.0723579,12.6593829 11.4202469,13.8139401 10.43,14.63 C9.36712388,15.4574284 8.04595332,15.8824699 6.7,15.83 C5.65458165,15.8532919 4.62097405,15.605226 3.7,15.11 C2.85717039,14.6100104 2.17659237,13.8773474 1.74,13 C1.22968951,12.0227434 0.975112913,10.9321923 1,9.83 C0.974623205,8.73094866 1.22927681,7.64350894 1.74,6.67 C2.19563409,5.80597223 2.88981363,5.09096731 3.74,4.61 C4.66097405,4.11477396 5.69458165,3.86670813 6.74,3.89 C8.08559784,3.84011573 9.40590505,4.26487944 10.47,5.09 L10.47,5.09 Z" id="Path"></path>
            <polygon id="Path" points="17 0.06 17 15.64 14.6 15.64 14.6 0.06"></polygon>
            <path d="M27.28,4.67 C28.0114808,5.17207088 28.5647125,5.89337309 28.86,6.73 L28.86,4 L31.26,4 L31.26,15.6 L28.86,15.6 L28.86,12.9 C28.5721645,13.7513256 28.018242,14.4875517 27.28,15 C26.4864944,15.533903 25.5460313,15.8066024 24.59,15.78 C23.6373959,15.795797 22.699147,15.5465205 21.88,15.06 C21.066655,14.5703828 20.4134166,13.8546004 20,13 C19.5302946,12.0072376 19.3007764,10.9178826 19.33,9.82 C19.3054804,8.73219808 19.5348844,7.65365729 20,6.67 C20.4085071,5.81842371 21.0544218,5.10305582 21.86,4.61 C22.679147,4.12347947 23.6173959,3.87420302 24.57,3.89 C25.5328017,3.85918718 26.4808954,4.13207023 27.28,4.67 L27.28,4.67 Z M22.76,7 C22.076856,7.77271293 21.7185906,8.77943889 21.76,9.81 C21.7122208,10.8415195 22.0713128,11.8505682 22.76,12.62 C23.4302978,13.3052467 24.3627043,13.669468 25.32,13.62 C25.9548545,13.6309001 26.5806543,13.4683996 27.13,13.15 C27.6661283,12.8288101 28.102379,12.364861 28.39,11.81 C28.7059611,11.1914839 28.8639893,10.5044047 28.85,9.81 C28.8631624,9.11568104 28.7051798,8.42880026 28.39,7.81 C28.1047724,7.25084102 27.6681833,6.78306696 27.13,6.46 C26.5798474,6.14461775 25.9539757,5.98555644 25.32,6 C24.3627043,5.95053205 23.4302978,6.31475331 22.76,7 L22.76,7 Z" id="Shape"></path>
            <path d="M41.22,4.94 C42.0519944,5.65049326 42.5901799,6.64488912 42.73,7.73 L40.45,7.73 C40.3751846,7.13842292 40.0871919,6.59443658 39.64,6.2 C39.1454049,5.79537878 38.51825,5.58870272 37.88,5.62 C37.3765262,5.58794277 36.8786757,5.74085399 36.48,6.05 C36.1518459,6.34772794 35.9754922,6.77759025 36,7.22 C35.9887511,7.55129689 36.1197754,7.87157863 36.36,8.1 C36.6162329,8.33710327 36.91946,8.51767669 37.25,8.63 C37.7533364,8.77941897 38.2640077,8.90291464 38.78,9 C39.5004239,9.15205709 40.2089317,9.35592019 40.9,9.61 C41.4402151,9.82084428 41.9183614,10.1648344 42.29,10.61 C42.7005669,11.1401569 42.9064636,11.8004465 42.87,12.47 C42.8945564,13.3880478 42.4828118,14.2634686 41.76,14.83 C40.8989736,15.4783512 39.8361205,15.80075 38.76,15.74 C37.5116779,15.8033774 36.2774865,15.4517559 35.25,14.74 C34.3756203,14.0739163 33.8003974,13.0888471 33.65,12 L36,12 C36.0555554,12.6072353 36.359536,13.164533 36.84,13.54 C37.3985866,13.9558743 38.0844551,14.1644632 38.78,14.13 C39.2741412,14.158995 39.7606763,13.9980091 40.14,13.68 C40.4640102,13.3870264 40.6431367,12.9666274 40.63,12.53 C40.6567489,12.1569756 40.5177253,11.7911242 40.25,11.53 C39.9590796,11.2828552 39.6178463,11.1020016 39.25,11 C38.7388582,10.8316127 38.2178829,10.6946897 37.69,10.59 C37.0120209,10.4339388 36.3441286,10.2369106 35.69,10 C35.1589682,9.79285124 34.6929053,9.44761951 34.34,9 C33.9439413,8.48634883 33.745245,7.84768208 33.78,7.2 C33.7615744,6.27477323 34.1711821,5.39282499 34.89,4.81 C35.7834719,4.14164927 36.8867153,3.8152879 38,3.89 C39.1640188,3.84613939 40.3055908,4.21839116 41.22,4.94 Z" id="Path"></path>
            <path d="M52.34,4.94 C53.1719944,5.65049326 53.7101799,6.64488912 53.85,7.73 L51.57,7.73 C51.4951846,7.13842292 51.2071919,6.59443658 50.76,6.2 C50.2654049,5.79537878 49.63825,5.58870272 49,5.62 C48.5027739,5.57364675 48.0055521,5.70860695 47.6,6 C47.2681473,6.29583901 47.0880073,6.72596932 47.11,7.17 C47.0987511,7.50129689 47.2297754,7.82157863 47.47,8.05 C47.7262329,8.28710327 48.02946,8.46767669 48.36,8.58 C48.8624189,8.74628122 49.3731008,8.88646843 49.89,9 C50.6083286,9.16883065 51.3135024,9.38940635 52,9.66 C52.5402151,9.87084428 53.0183614,10.2148344 53.39,10.66 C53.813605,11.1886113 54.0304231,11.8532832 54,12.53 C54.0245564,13.4480478 53.6128118,14.3234686 52.89,14.89 C52.0289736,15.5383512 50.9661205,15.86075 49.89,15.8 C48.6416779,15.8633774 47.4074865,15.5117559 46.38,14.8 C45.4881231,14.1216004 44.9076491,13.1120806 44.77,12 L47.11,12 C47.1884729,12.6008721 47.5102321,13.143163 48,13.5 C48.5585866,13.9158743 49.2444551,14.1244632 49.94,14.09 C50.4341412,14.118995 50.9206763,13.9580091 51.3,13.64 C51.6240102,13.3470264 51.8031367,12.9266274 51.79,12.49 C51.8167489,12.1169756 51.6777253,11.7511242 51.41,11.49 C51.1218882,11.2320886 50.7804482,11.0408822 50.41,10.93 C49.8988582,10.7616127 49.3778829,10.6246897 48.85,10.52 C48.1566524,10.3888574 47.4720267,10.2151963 46.8,10 C46.2689682,9.79285124 45.8029053,9.44761951 45.45,9 C45.0539413,8.48634883 44.855245,7.84768208 44.89,7.2 C44.8715744,6.27477323 45.2811821,5.39282499 46,4.81 C46.8800917,4.1530655 47.9635533,3.82731888 49.06,3.89 C50.2443668,3.83158798 51.4097346,4.2046478 52.34,4.94 L52.34,4.94 Z" id="Path"></path>
            <polygon id="Path" points="67.59 16.4 67.59 18.74 55.85 18.74 55.85 16.4"></polygon>
            <path d="M78.77,5.09 C79.7618417,5.90045567 80.4146223,7.05263132 80.6,8.32 L78.06,8.32 C77.939629,7.63220665 77.5602922,7.01667913 77,6.6 C76.4174787,6.18545439 75.7145153,5.97456537 75,6 C74.1187363,5.98364519 73.2732195,6.34809209 72.68,7 C72.0072805,7.79860906 71.6735148,8.82861731 71.75,9.87 C71.6782808,10.9138535 72.0113297,11.9452306 72.68,12.75 C73.2684399,13.4085745 74.1171715,13.7744071 75,13.75 C75.7183936,13.7698045 76.4226531,13.5479628 77,13.12 C77.536966,12.687836 77.893519,12.0709993 78,11.39 L80.55,11.39 C80.3623579,12.6593829 79.7102469,13.8139401 78.72,14.63 C77.6543776,15.4408994 76.3376576,15.8514895 75,15.79 C73.9545817,15.8132919 72.920974,15.565226 72,15.07 C71.1480605,14.5867939 70.4536239,13.868052 70,13 C69.4880404,12.0197617 69.2334149,10.92556 69.26,9.82 C69.236324,8.72431733 69.4909282,7.6405292 70,6.67 C70.4556341,5.80597223 71.1498136,5.09096731 72,4.61 C72.920974,4.11477396 73.9545817,3.86670813 75,3.89 C76.3591661,3.83058784 77.6952515,4.25586701 78.77,5.09 Z" id="Path"></path>
            <path d="M91.26,4.61 C92.1494372,5.07584474 92.8829628,5.79198819 93.37,6.67 C93.8936042,7.63940302 94.1555445,8.72852325 94.13,9.83 C94.1523785,10.9355395 93.8870381,12.027915 93.36,13 C92.8729628,13.8780118 92.1394372,14.5941553 91.25,15.06 C89.3462443,16.0143663 87.1037557,16.0143663 85.2,15.06 C84.3163149,14.5897727 83.5871327,13.8744797 83.1,13 C82.5703485,12.0289232 82.3048369,10.9358425 82.33,9.83 C82.3037682,8.7272225 82.5694007,7.63709397 83.1,6.67 C83.5907314,5.79481444 84.3232996,5.07960564 85.21,4.61 C87.1137557,3.65563374 89.3562443,3.65563374 91.26,4.61 Z M86.52,6.4 C85.9837066,6.69987819 85.5486247,7.1523634 85.27,7.7 C84.9366206,8.36272741 84.7750113,9.09856559 84.8,9.84 C84.7711875,10.5881868 84.9329118,11.3314305 85.27,12 C85.5522977,12.5398926 85.9869531,12.9849797 86.52,13.28 C87.5876615,13.8401282 88.8623385,13.8401282 89.93,13.28 C90.4630469,12.9849797 90.8977023,12.5398926 91.18,12 C91.5154332,11.334423 91.6771114,10.594831 91.65,9.85 C91.6749887,9.10856559 91.5133794,8.37272741 91.18,7.71 C90.9029871,7.15866609 90.4677507,6.70253829 89.93,6.4 C88.8627652,5.8381426 87.5872348,5.8381426 86.52,6.4 L86.52,6.4 Z" id="Shape"></path>
            <path d="M103.79,4.67 C104.519456,5.16951297 105.066924,5.89245178 105.35,6.73 L105.35,0.06 L107.77,0.06 L107.77,15.64 L105.35,15.64 L105.35,12.94 C105.067574,13.777892 104.519963,14.501019 103.79,15 C102.996494,15.533903 102.056031,15.8066024 101.1,15.78 C100.147396,15.795797 99.209147,15.5465205 98.39,15.06 C97.5803546,14.5688819 96.9307239,13.8532459 96.52,13 C96.0502946,12.0072376 95.8207764,10.9178826 95.85,9.82 C95.8239176,8.72883702 96.0533595,7.64669326 96.52,6.66 C96.9285071,5.80842371 97.5744218,5.09305582 98.38,4.6 C99.199147,4.11347947 100.137396,3.86420302 101.09,3.88 C102.050503,3.85423989 102.994872,4.13055525 103.79,4.67 Z M99.27,7 C98.586856,7.77271293 98.2285906,8.77943889 98.27,9.81 C98.2222208,10.8415195 98.5813128,11.8505682 99.27,12.62 C99.9402978,13.3052467 100.872704,13.669468 101.83,13.62 C102.464854,13.6309001 103.090654,13.4683996 103.64,13.15 C104.176128,12.8288101 104.612379,12.364861 104.9,11.81 C105.215961,11.1914839 105.373989,10.5044047 105.36,9.81 C105.373162,9.11568104 105.21518,8.42880026 104.9,7.81 C104.614772,7.25084102 104.178183,6.78306696 103.64,6.46 C103.089847,6.14461775 102.463976,5.98555644 101.83,6 C100.872704,5.95053205 99.9402978,6.31475331 99.27,7 L99.27,7 Z" id="Shape"></path>
            <path d="M121.34,10.32 L112.41,10.32 C112.373038,11.3019283 112.73355,12.2572837 113.41,12.97 C114.034134,13.5473358 114.860192,13.8562096 115.71,13.83 C116.424771,13.8459641 117.125803,13.6321494 117.71,13.22 C118.242334,12.8315282 118.601313,12.2499825 118.71,11.6 L121.28,11.6 C120.990006,13.2213776 119.909454,14.5908269 118.4,15.25 C117.572511,15.6174855 116.675344,15.8016948 115.77,15.79 C114.724582,15.8132919 113.690974,15.565226 112.77,15.07 C111.919466,14.589483 111.225174,13.8743619 110.77,13.01 C110.24763,12.03252 109.982645,10.9381682 110,9.83 C109.974623,8.73094866 110.229277,7.64350894 110.74,6.67 C111.195634,5.80597223 111.889814,5.09096731 112.74,4.61 C114.624408,3.64836718 116.855592,3.64836718 118.74,4.61 C119.580014,5.04997085 120.274655,5.72377225 120.74,6.55 C121.368418,7.70020157 121.570296,9.03543051 121.31,10.32 L121.34,10.32 Z M118.61,7.32 C118.343912,6.8271994 117.93168,6.42894153 117.43,6.18 C116.922723,5.9318998 116.364678,5.8052271 115.8,5.81 C114.931902,5.78183253 114.086449,6.08992141 113.44,6.67 C112.777037,7.35075904 112.41653,8.27005166 112.44,9.22 L119,9.22 C119.050914,8.5637457 118.919403,7.90619099 118.62,7.32 L118.61,7.32 Z" id="Shape"></path>
            <path d="M127.83,4.52 C128.595604,4.06914041 129.471717,3.84058916 130.36,3.86 L130.36,6.46 L129.64,6.46 C128.729761,6.4151851 127.832134,6.68730046 127.1,7.23 C126.38788,7.8737544 126.017881,8.81355321 126.1,9.77 L126.1,15.64 L123.7,15.64 L123.7,4 L126.1,4 L126.1,6.32 C126.494006,5.56786958 127.094081,4.94351455 127.83,4.52 Z" id="Path"></path>
            <path d="M139.23,4.94 C140.061994,5.65049326 140.60018,6.64488912 140.74,7.73 L138.47,7.73 C138.395185,7.13842292 138.107192,6.59443658 137.66,6.2 C137.165405,5.79537878 136.53825,5.58870272 135.9,5.62 C135.396526,5.58794277 134.898676,5.74085399 134.5,6.05 C134.164441,6.34393233 133.980508,6.77433653 134,7.22 C133.988751,7.55129689 134.119775,7.87157863 134.36,8.1 C134.616233,8.33710327 134.91946,8.51767669 135.25,8.63 C135.752419,8.79628122 136.263101,8.93646843 136.78,9.05 C137.500424,9.20205709 138.208932,9.40592019 138.9,9.66 C139.440215,9.87084428 139.918361,10.2148344 140.29,10.66 C140.700567,11.1901569 140.906464,11.8504465 140.87,12.52 C140.894556,13.4380478 140.482812,14.3134686 139.76,14.88 C138.898974,15.5283512 137.83612,15.85075 136.76,15.79 C135.511678,15.8533774 134.277486,15.5017559 133.25,14.79 C132.367943,14.1102929 131.795219,13.1053243 131.66,12 L134,12 C134.055555,12.6072353 134.359536,13.164533 134.84,13.54 C135.398587,13.9558743 136.084455,14.1644632 136.78,14.13 C137.274141,14.158995 137.760676,13.9980091 138.14,13.68 C138.46401,13.3870264 138.643137,12.9666274 138.63,12.53 C138.656749,12.1569756 138.517725,11.7911242 138.25,11.53 C137.976466,11.2782951 137.652683,11.0874333 137.3,10.97 C136.788858,10.8016127 136.267883,10.6646897 135.74,10.56 C135.045124,10.4059136 134.360476,10.2088685 133.69,9.97 C133.158968,9.76285124 132.692905,9.41761951 132.34,8.97 C131.943941,8.45634883 131.745245,7.81768208 131.78,7.17 C131.761574,6.24477323 132.171182,5.36282499 132.89,4.78 C133.788878,4.12584355 134.891635,3.81380925 136,3.9 C137.166169,3.8509018 138.311564,4.21969761 139.23,4.94 L139.23,4.94 Z" id="Path"></path>
        </g>
    </g>
</svg>